<?xml version="1.0" standalone="no"?>
<!DOCTYPE svg PUBLIC "-//W3C//DTD SVG 20010904//EN"
 "http://www.w3.org/TR/2001/REC-SVG-20010904/DTD/svg10.dtd">
<svg version="1.0" xmlns="http://www.w3.org/2000/svg"
 width="405.000000pt" height="150.000000pt" viewBox="0 0 405.000000 150.000000"
 preserveAspectRatio="xMidYMid meet">

<g transform="translate(0.000000,150.000000) scale(0.100000,-0.100000)"
fill="#000000" stroke="none">
<path d="M3060 1141 c-18 -17 -30 -40 -30 -55 0 -20 -12 -33 -54 -60 -156 -99
-200 -308 -99 -459 32 -48 34 -54 26 -101 -10 -67 -7 -86 19 -113 21 -23 23
-23 298 -23 l276 0 50 53 c57 60 249 278 282 321 30 40 28 87 -5 128 -15 18
-94 101 -175 183 l-147 150 -206 3 -205 3 -30 -30z m165 -152 c53 -13 128 -75
154 -128 51 -98 32 -211 -48 -291 -35 -35 -63 -53 -102 -64 -69 -21 -97 -20
-162 4 -143 54 -209 218 -139 350 59 113 170 161 297 129z"/>
<path d="M3133 887 c-12 -12 -31 -30 -43 -39 -14 -12 -20 -30 -20 -56 0 -40
12 -51 68 -67 23 -7 31 -34 10 -37 -7 0 -33 -1 -58 -2 -54 -1 -68 -28 -25 -48
18 -8 25 -17 22 -30 -7 -27 49 -25 58 1 3 11 21 28 39 39 37 22 54 68 37 100
-5 10 -28 24 -50 31 -67 20 -46 58 25 45 50 -9 57 19 13 56 -41 35 -48 36 -76
7z"/>
<path d="M667 1025 c-8 -8 -21 -47 -27 -87 -7 -40 -25 -134 -40 -208 l-27
-135 35 -3 c19 -2 39 1 44 6 10 10 78 340 80 390 2 48 -34 68 -65 37z"/>
<path d="M1491 1026 c-9 -10 -91 -396 -91 -428 0 -15 70 -9 77 7 5 14 8 14 25
-2 29 -26 119 -24 155 3 47 35 76 98 81 180 4 68 3 74 -21 98 -22 21 -35 26
-79 26 -33 0 -62 -6 -77 -16 -23 -16 -23 -16 -17 12 17 86 18 105 6 119 -16
19 -44 19 -59 1z m147 -198 c23 -23 11 -114 -20 -147 -23 -25 -80 -28 -102 -5
-24 23 1 124 37 149 26 18 68 20 85 3z"/>
<path d="M2482 1027 c-6 -7 -25 -85 -42 -172 -17 -88 -35 -179 -40 -202 -14
-61 -13 -63 24 -63 39 0 51 12 61 60 17 88 27 91 59 17 29 -64 46 -79 83 -75
38 4 41 36 9 98 -14 27 -26 53 -26 57 0 5 18 30 40 57 42 51 49 76 25 96 -22
19 -47 5 -94 -55 -39 -49 -81 -75 -68 -42 2 6 12 56 22 109 15 80 16 100 5
112 -15 19 -44 21 -58 3z"/>
<path d="M301 901 c-9 -6 -30 -90 -56 -225 l-42 -216 38 0 c43 0 52 11 63 75
13 75 13 75 44 59 34 -18 74 -18 115 0 67 28 107 107 107 210 0 58 -3 67 -26
85 -32 25 -118 29 -151 6 -18 -13 -22 -13 -33 0 -14 17 -38 19 -59 6z m167
-73 c32 -32 0 -153 -43 -164 -34 -8 -67 -1 -78 17 -16 25 1 108 28 135 26 26
73 32 93 12z"/>
<path d="M791 901 c-14 -9 -60 -193 -61 -242 -1 -67 87 -101 155 -61 28 17 35
18 35 7 0 -16 46 -21 68 -7 14 10 64 259 56 284 -7 22 -41 33 -59 18 -7 -6
-21 -46 -30 -88 -22 -105 -23 -106 -46 -130 -24 -26 -65 -29 -78 -4 -5 11 -3
50 7 109 13 76 14 94 3 107 -15 18 -29 20 -50 7z"/>
<path d="M1143 890 c-45 -27 -75 -91 -81 -170 -3 -56 -1 -69 17 -92 35 -44
128 -49 168 -10 15 16 16 15 9 -13 -4 -17 -17 -41 -29 -53 -20 -22 -29 -23
-97 -20 -74 3 -75 3 -78 -23 -5 -40 21 -54 102 -54 86 0 131 22 163 81 29 52
81 329 66 352 -14 24 -38 26 -57 6 -16 -15 -18 -15 -35 0 -25 23 -108 21 -148
-4z m128 -60 c32 -18 23 -105 -16 -143 -19 -20 -76 -22 -93 -5 -16 16 -15 61
2 102 21 51 63 69 107 46z"/>
<path d="M1844 899 c-36 -10 -50 -35 -32 -56 9 -11 24 -13 59 -9 58 8 79 0 79
-29 0 -20 -6 -23 -62 -29 -104 -12 -148 -49 -148 -125 0 -35 4 -43 30 -56 37
-19 71 -19 118 0 24 10 38 12 40 5 2 -5 17 -10 33 -10 36 0 43 14 64 131 29
164 17 190 -87 188 -35 0 -77 -5 -94 -10z m96 -173 c0 -1 -5 -17 -10 -33 -12
-34 -52 -57 -82 -47 -28 8 -20 55 12 71 23 11 80 18 80 9z"/>
<path d="M2116 888 c-8 -13 -24 -75 -35 -138 -12 -63 -24 -125 -27 -137 -6
-21 -3 -23 29 -23 19 0 40 6 46 13 6 8 18 49 27 93 22 110 56 154 104 139 24
-8 26 -50 5 -145 -15 -73 -8 -100 29 -100 34 0 42 15 60 115 21 119 21 168 -2
188 -24 22 -110 23 -140 1 -20 -14 -24 -14 -38 0 -22 22 -41 20 -58 -6z"/>
</g>
</svg>
