<svg xmlns="http://www.w3.org/2000/svg" viewBox="0 0 103.92 103.92"><defs><linearGradient id="Gradiente_sem_nome_2" y1="51.96" x2="103.92" y2="51.96" gradientUnits="userSpaceOnUse"><stop offset="0" stop-color="#5b2c70"/><stop offset="1" stop-color="#683183"/></linearGradient><style>.cls-2{fill:#fff}</style></defs><g id="Camada_2" data-name="Camada 2"><g id="Camada_1-2" data-name="Camada 1"><rect width="103.92" height="103.92" rx="15.38" style="fill:url(#Gradiente_sem_nome_2)"/><path class="cls-2" d="M85.78 45.56 65.41 24.72a7.26 7.26 0 0 0-5.21-2.2H36.56a5.91 5.91 0 0 0-5.79 4.75l-.69 3.44a23.1 23.1 0 0 0-7.48 37.35c-.43 2.09-.85 4.19-1.26 6.28a5.9 5.9 0 0 0 5.79 7.06H60a7.3 7.3 0 0 0 5.47-2.48l20.58-23.46a7.29 7.29 0 0 0-.27-9.9zm-46.6 24.17A17.77 17.77 0 1 1 57 52a17.77 17.77 0 0 1-17.82 17.73z"/><path class="cls-2" d="M45.07 44.22a1.93 1.93 0 0 0-1.18-1 11.29 11.29 0 0 0-1.55-.37 1.91 1.91 0 0 0-1.91-2.1h-.28a1.93 1.93 0 0 0-1.88 1.54l-.13.62a5.86 5.86 0 0 0-5 5c-.81 4.14 2.27 4.87 4.52 5.4 1.77.42 2.47.67 2.31 1.47s-.6 1.65-2.68 1.65a9.38 9.38 0 0 1-3.29-.69 1.92 1.92 0 0 0-2.47 1l-.05.11a1.94 1.94 0 0 0 0 1.53 1.87 1.87 0 0 0 1.13 1 12.94 12.94 0 0 0 2.19.51l-.64 3.23h2.61a1.91 1.91 0 0 0 1.88-1.56l.35-1.65a6.13 6.13 0 0 0 5.26-5.2c.76-3.91-2.21-4.61-4.37-5.12-1.9-.44-2.65-.72-2.46-1.7.27-1.34 1.72-1.54 2.57-1.54a7.11 7.11 0 0 1 2.6.47 1.92 1.92 0 0 0 2.46-1 1.89 1.89 0 0 0 .01-1.6z"/></g></g></svg>